<svg width="8" height="10" viewBox="0 0 8 10" xmlns="http://www.w3.org/2000/svg">
    <path d="
    M7 5.53125
    L2.75 9.78125
    C2.60417 9.92708 2.42708 10 2.21875 10
    C2.01042 10 1.83333 9.92708 1.6875 9.78125
    L1 9.0625
    C0.854167 8.91667 0.78125 8.73958 0.78125 8.53125
    C0.78125 8.32292 0.854167 8.14583 1 8
    L4 5L1 2
    C0.854167 1.85417 0.78125 1.67708 0.78125 1.46875
    C0.78125 1.26042 0.854167 1.08333 1 0.9375
    L1.6875 0.21875
    C1.83333 0.0729167 2.01042 0 2.21875 0
    C2.42708 0 2.60417 0.0729167 2.75 0.21875
    L7 4.46875
    C7.14583 4.61458 7.21875 4.79167 7.21875 5
    C7.21875 5.20833 7.14583 5.38542 7 5.53125
    Z"
          fill="black"/>
</svg>
